<svg xmlns="http://www.w3.org/2000/svg" width="1440" height="560" preserveAspectRatio="none" viewBox="0 0 1440 560"><g fill="none" mask="url(&quot;#a&quot;)"><path fill="url(&quot;#b&quot;)" d="M0 0h1440v560H0z"/><path stroke="#03305d" stroke-width="2" d="m47.06-53.92 78.81 45.5v91l-78.81 45.5-78.81-45.5v-91zm78.81 136.5 78.81 45.5v91l-78.81 45.5-78.81-45.5v-91zm78.81-136.5 78.81 45.5v91l-78.81 45.5-78.81-45.5v-91zm78.81 136.5 78.81 45.5v91l-78.81 45.5-78.81-45.5v-91zm-78.81 409.5 78.81 45.5v91l-78.81 45.5-78.81-45.5v-91zm157.62-546 78.81 45.5v91l-78.81 45.5-78.81-45.5v-91zm78.81 136.5 78.81 45.5v91l-78.81 45.5-78.81-45.5v-91zm78.81 136.5 78.81 45.5v91l-78.81 45.5-78.81-45.5v-91zm0 273 78.81 45.5v91l-78.81 45.5-78.81-45.5v-91zm157.62-546 78.81 45.5v91l-78.81 45.5-78.81-45.5v-91zm78.81 136.5 78.82 45.5v91l-78.82 45.5-78.81-45.5v-91zm0 273 78.82 45.5v91l-78.82 45.5-78.81-45.5v-91zm78.82-409.5 78.81 45.5v91l-78.81 45.5-78.82-45.5v-91zm78.81 136.5 78.81 45.5v91l-78.81 45.5-78.81-45.5v-91zm-78.81 409.5 78.81 45.5v91l-78.81 45.5-78.82-45.5v-91zm394.05-136.5 78.81 45.5v91l-78.81 45.5-78.81-45.5v-91zm78.81-409.5 78.81 45.5v91l-78.81 45.5-78.81-45.5v-91zm0 273 78.81 45.5v91l-78.81 45.5-78.81-45.5v-91zm78.81 136.5 78.81 45.5v91l-78.81 45.5-78.81-45.5v-91zm78.81-136.5 78.81 45.5v91l-78.81 45.5-78.81-45.5v-91zm0 273 78.81 45.5v91l-78.81 45.5-78.81-45.5v-91z"/><path fill="#03305d" d="M37.96-53.92a9.1 9.1 0 1 0 18.2 0 9.1 9.1 0 1 0-18.2 0m78.81 45.5a9.1 9.1 0 1 0 18.2 0 9.1 9.1 0 1 0-18.2 0m0 91a9.1 9.1 0 1 0 18.2 0 9.1 9.1 0 1 0-18.2 0m-78.81 45.5a9.1 9.1 0 1 0 18.2 0 9.1 9.1 0 1 0-18.2 0m-78.81-45.5a9.1 9.1 0 1 0 18.2 0 9.1 9.1 0 1 0-18.2 0m0-91a9.1 9.1 0 1 0 18.2 0 9.1 9.1 0 1 0-18.2 0m236.43 136.5a9.1 9.1 0 1 0 18.2 0 9.1 9.1 0 1 0-18.2 0m0 91a9.1 9.1 0 1 0 18.2 0 9.1 9.1 0 1 0-18.2 0m-78.81 45.5a9.1 9.1 0 1 0 18.2 0 9.1 9.1 0 1 0-18.2 0m-78.81-45.5a9.1 9.1 0 1 0 18.2 0 9.1 9.1 0 1 0-18.2 0m157.62-273a9.1 9.1 0 1 0 18.2 0 9.1 9.1 0 1 0-18.2 0m78.81 45.5a9.1 9.1 0 1 0 18.2 0 9.1 9.1 0 1 0-18.2 0m0 91a9.1 9.1 0 1 0 18.2 0 9.1 9.1 0 1 0-18.2 0m78.81 45.5a9.1 9.1 0 1 0 18.2 0 9.1 9.1 0 1 0-18.2 0m0 91a9.1 9.1 0 1 0 18.2 0 9.1 9.1 0 1 0-18.2 0m-78.81 45.5a9.1 9.1 0 1 0 18.2 0 9.1 9.1 0 1 0-18.2 0m-78.81 227.5a9.1 9.1 0 1 0 18.2 0 9.1 9.1 0 1 0-18.2 0m78.81 45.5a9.1 9.1 0 1 0 18.2 0 9.1 9.1 0 1 0-18.2 0m0 91a9.1 9.1 0 1 0 18.2 0 9.1 9.1 0 1 0-18.2 0m-78.81 45.5a9.1 9.1 0 1 0 18.2 0 9.1 9.1 0 1 0-18.2 0m-78.81-45.5a9.1 9.1 0 1 0 18.2 0 9.1 9.1 0 1 0-18.2 0m0-91a9.1 9.1 0 1 0 18.2 0 9.1 9.1 0 1 0-18.2 0M353.2-53.92a9.1 9.1 0 1 0 18.2 0 9.1 9.1 0 1 0-18.2 0m78.81 45.5a9.1 9.1 0 1 0 18.2 0 9.1 9.1 0 1 0-18.2 0m0 91a9.1 9.1 0 1 0 18.2 0 9.1 9.1 0 1 0-18.2 0m78.81 45.5a9.1 9.1 0 1 0 18.2 0 9.1 9.1 0 1 0-18.2 0m0 91a9.1 9.1 0 1 0 18.2 0 9.1 9.1 0 1 0-18.2 0m-78.81 45.5a9.1 9.1 0 1 0 18.2 0 9.1 9.1 0 1 0-18.2 0m157.62 0a9.1 9.1 0 1 0 18.2 0 9.1 9.1 0 1 0-18.2 0m0 91a9.1 9.1 0 1 0 18.2 0 9.1 9.1 0 1 0-18.2 0m-78.81 45.5a9.1 9.1 0 1 0 18.2 0 9.1 9.1 0 1 0-18.2 0m-78.81-45.5a9.1 9.1 0 1 0 18.2 0 9.1 9.1 0 1 0-18.2 0m78.81 136.5a9.1 9.1 0 1 0 18.2 0 9.1 9.1 0 1 0-18.2 0m78.81 45.5a9.1 9.1 0 1 0 18.2 0 9.1 9.1 0 1 0-18.2 0m0 91a9.1 9.1 0 1 0 18.2 0 9.1 9.1 0 1 0-18.2 0m-78.81 45.5a9.1 9.1 0 1 0 18.2 0 9.1 9.1 0 1 0-18.2 0m-78.81-45.5a9.1 9.1 0 1 0 18.2 0 9.1 9.1 0 1 0-18.2 0m0-91a9.1 9.1 0 1 0 18.2 0 9.1 9.1 0 1 0-18.2 0m236.43-591.5a9.1 9.1 0 1 0 18.2 0 9.1 9.1 0 1 0-18.2 0m78.81 45.5a9.1 9.1 0 1 0 18.2 0 9.1 9.1 0 1 0-18.2 0m0 91a9.1 9.1 0 1 0 18.2 0 9.1 9.1 0 1 0-18.2 0m-78.81 45.5a9.1 9.1 0 1 0 18.2 0 9.1 9.1 0 1 0-18.2 0m-78.81-45.5a9.1 9.1 0 1 0 18.2 0 9.1 9.1 0 1 0-18.2 0m0-91a9.1 9.1 0 1 0 18.2 0 9.1 9.1 0 1 0-18.2 0m236.44 136.5a9.1 9.1 0 1 0 18.2 0 9.1 9.1 0 1 0-18.2 0m0 91a9.1 9.1 0 1 0 18.2 0 9.1 9.1 0 1 0-18.2 0m-78.82 45.5a9.1 9.1 0 1 0 18.2 0 9.1 9.1 0 1 0-18.2 0m-78.81-45.5a9.1 9.1 0 1 0 18.2 0 9.1 9.1 0 1 0-18.2 0m78.81 136.5a9.1 9.1 0 1 0 18.2 0 9.1 9.1 0 1 0-18.2 0m78.82 45.5a9.1 9.1 0 1 0 18.2 0 9.1 9.1 0 1 0-18.2 0m0 91a9.1 9.1 0 1 0 18.2 0 9.1 9.1 0 1 0-18.2 0m-78.82 45.5a9.1 9.1 0 1 0 18.2 0 9.1 9.1 0 1 0-18.2 0m-78.81-45.5a9.1 9.1 0 1 0 18.2 0 9.1 9.1 0 1 0-18.2 0m0-91a9.1 9.1 0 1 0 18.2 0 9.1 9.1 0 1 0-18.2 0m157.63-455a9.1 9.1 0 1 0 18.2 0 9.1 9.1 0 1 0-18.2 0m78.81 45.5a9.1 9.1 0 1 0 18.2 0 9.1 9.1 0 1 0-18.2 0m0 91a9.1 9.1 0 1 0 18.2 0 9.1 9.1 0 1 0-18.2 0m78.81 45.5a9.1 9.1 0 1 0 18.2 0 9.1 9.1 0 1 0-18.2 0m0 91a9.1 9.1 0 1 0 18.2 0 9.1 9.1 0 1 0-18.2 0m-78.81 45.5a9.1 9.1 0 1 0 18.2 0 9.1 9.1 0 1 0-18.2 0m0 273a9.1 9.1 0 1 0 18.2 0 9.1 9.1 0 1 0-18.2 0m0 91a9.1 9.1 0 1 0 18.2 0 9.1 9.1 0 1 0-18.2 0m-78.81 45.5a9.1 9.1 0 1 0 18.2 0 9.1 9.1 0 1 0-18.2 0m-78.82-45.5a9.1 9.1 0 1 0 18.2 0 9.1 9.1 0 1 0-18.2 0m472.87-273a9.1 9.1 0 1 0 18.2 0 9.1 9.1 0 1 0-18.2 0m78.81 45.5a9.1 9.1 0 1 0 18.2 0 9.1 9.1 0 1 0-18.2 0m0 91a9.1 9.1 0 1 0 18.2 0 9.1 9.1 0 1 0-18.2 0m-78.81 45.5a9.1 9.1 0 1 0 18.2 0 9.1 9.1 0 1 0-18.2 0m-78.81-45.5a9.1 9.1 0 1 0 18.2 0 9.1 9.1 0 1 0-18.2 0m0-91a9.1 9.1 0 1 0 18.2 0 9.1 9.1 0 1 0-18.2 0m157.62-455a9.1 9.1 0 1 0 18.2 0 9.1 9.1 0 1 0-18.2 0m78.81 45.5a9.1 9.1 0 1 0 18.2 0 9.1 9.1 0 1 0-18.2 0m0 91a9.1 9.1 0 1 0 18.2 0 9.1 9.1 0 1 0-18.2 0m-78.81 45.5a9.1 9.1 0 1 0 18.2 0 9.1 9.1 0 1 0-18.2 0m-78.81-45.5a9.1 9.1 0 1 0 18.2 0 9.1 9.1 0 1 0-18.2 0m0-91a9.1 9.1 0 1 0 18.2 0 9.1 9.1 0 1 0-18.2 0m78.81 227.5a9.1 9.1 0 1 0 18.2 0 9.1 9.1 0 1 0-18.2 0m78.81 45.5a9.1 9.1 0 1 0 18.2 0 9.1 9.1 0 1 0-18.2 0m0 91a9.1 9.1 0 1 0 18.2 0 9.1 9.1 0 1 0-18.2 0m-157.62-91a9.1 9.1 0 1 0 18.2 0 9.1 9.1 0 1 0-18.2 0m236.43 136.5a9.1 9.1 0 1 0 18.2 0 9.1 9.1 0 1 0-18.2 0m0 91a9.1 9.1 0 1 0 18.2 0 9.1 9.1 0 1 0-18.2 0m-78.81 45.5a9.1 9.1 0 1 0 18.2 0 9.1 9.1 0 1 0-18.2 0m78.81-318.5a9.1 9.1 0 1 0 18.2 0 9.1 9.1 0 1 0-18.2 0m78.81 45.5a9.1 9.1 0 1 0 18.2 0 9.1 9.1 0 1 0-18.2 0m0 91a9.1 9.1 0 1 0 18.2 0 9.1 9.1 0 1 0-18.2 0m0 182a9.1 9.1 0 1 0 18.2 0 9.1 9.1 0 1 0-18.2 0m0 91a9.1 9.1 0 1 0 18.2 0 9.1 9.1 0 1 0-18.2 0m-78.81 45.5a9.1 9.1 0 1 0 18.2 0 9.1 9.1 0 1 0-18.2 0m-78.81-45.5a9.1 9.1 0 1 0 18.2 0 9.1 9.1 0 1 0-18.2 0"/><path stroke="url(&quot;#c&quot;)" stroke-width="2" d="m69.87 43.2 53.69 31v62l-53.69 31-53.7-31v-62zm0 372 53.69 31v62l-53.69 31-53.7-31v-62zm-53.7 93 53.7 31v62l-53.7 31-53.7-31v-62zm161.09-279 53.69 31v62l-53.69 31-53.7-31v-62zm-53.7 93 53.7 31v62l-53.7 31-53.69-31v-62zm53.7 93 53.69 31v62l-53.69 31-53.7-31v-62zm-53.7 93 53.7 31v62l-53.7 31-53.69-31v-62zm161.09-465 53.69 31v62l-53.69 31-53.7-31v-62zm-53.7 93 53.7 31v62l-53.7 31-53.69-31v-62zm53.7 279 53.69 31v62l-53.69 31-53.7-31v-62zm107.39-186 53.69 31v62l-53.69 31-53.7-31v-62zm-53.7 93 53.7 31v62l-53.7 31-53.69-31v-62zm161.09-279 53.69 31v62l-53.69 31-53.7-31v-62zm-53.7 93 53.7 31v62l-53.7 31-53.69-31v-62zm53.7 93 53.69 31v62l-53.69 31-53.7-31v-62zm-53.7 93 53.7 31v62l-53.7 31-53.69-31v-62zm53.7 93 53.69 31v62l-53.69 31-53.7-31v-62zm-53.7 93 53.7 31v62l-53.7 31-53.69-31v-62zm107.39-558 53.7 31v62l-53.7 31-53.69-31v-62zm0 186 53.7 31v62l-53.7 31-53.69-31v-62zm0 186 53.7 31v62l-53.7 31-53.69-31v-62zm161.09-279 53.69 31v62l-53.69 31-53.7-31v-62zm0 372 53.69 31v62l-53.69 31-53.7-31v-62zm-53.7 93 53.7 31v62l-53.7 31-53.69-31v-62zm107.39-372 53.7 31v62l-53.7 31-53.69-31v-62zm53.7 279 53.69 31v62l-53.69 31-53.7-31v-62zm-53.7 93 53.7 31v62l-53.7 31-53.69-31v-62zm107.39-186 53.7 31v62l-53.7 31-53.69-31v-62zm53.7 93 53.69 31v62l-53.69 31-53.7-31v-62zm-53.7 93 53.7 31v62l-53.7 31-53.69-31v-62zm107.39-558 53.7 31v62l-53.7 31-53.69-31v-62zm0 558 53.7 31v62l-53.7 31-53.69-31v-62zm107.39-372 53.7 31v62l-53.7 31-53.69-31v-62zm53.7 93 53.69 31v62l-53.69 31-53.7-31v-62zm-53.7 93 53.7 31v62l-53.7 31-53.69-31v-62zm53.7 93 53.69 31v62l-53.69 31-53.7-31v-62zm53.69-465 53.7 31v62l-53.7 31-53.69-31v-62zm0 186 53.7 31v62l-53.7 31-53.69-31v-62zm53.7 279 53.69 31v62l-53.69 31-53.7-31v-62zm-53.7 93 53.7 31v62l-53.7 31-53.69-31v-62zm161.09-279 53.69 31v62l-53.69 31-53.7-31v-62zm0 186 53.69 31v62l-53.69 31-53.7-31v-62zm-53.7 93 53.7 31v62l-53.7 31-53.69-31v-62zm161.09-465 53.69 31v62l-53.69 31-53.7-31v-62zm0 186 53.69 31v62l-53.69 31-53.7-31v-62zm-53.7 279 53.7 31v62l-53.7 31-53.69-31v-62z"/></g><defs><linearGradient id="b" x1="15.28%" x2="84.72%" y1="-39.29%" y2="139.29%" gradientUnits="userSpaceOnUse"><stop offset="0" stop-color="rgba(15, 44, 65, 1)"/><stop offset=".84" stop-color="rgba(0, 54, 125, 1)"/><stop offset="1" stop-color="rgba(0, 54, 125, 1)"/></linearGradient><linearGradient id="c" x1="220.032" x2="1219.968" y1="-220.024" y2="780.024" gradientUnits="userSpaceOnUse"><stop offset=".19" stop-color="rgba(14, 43, 71, 1)"/><stop offset=".72" stop-color="rgba(0, 69, 158, 1)"/></linearGradient><mask id="a"><path fill="#fff" d="M0 0h1440v560H0z"/></mask></defs></svg>